<?xml version="1.0" encoding="utf-8"?>
<svg version="1.1" xmlns:xlink="http://www.w3.org/1999/xlink" width="20px" height="20px" xmlns="http://www.w3.org/2000/svg">
  <g transform="matrix(1 0 0 1 -176 -115 )">
    <path d="M 9.27447471417683 12.336633710937498  C 9.280914373729676 12.415841640624999  9.297013541666667 12.52145220052083  9.322772275152438 12.6534653515625  C 9.297013598831303 12.798679869791666  9.264815256605692 12.910891093750001  9.22617724847561 12.9900990234375  C 9.18753924034553 13.069306953125002  9.097383885924797 13.155115533854168  8.955711185213413 13.247524765625  C 8.620848431148376 13.458745885416668  8.260227000762196 13.630363046875  7.87384689405488 13.76237625  C 7.487466787347562 13.894389453125003  7.117185854928864 14.039603971354168  6.763004096798781 14.198019804687501  C 6.408822338668699 14.356435638020832  6.0997182545731725 14.564356432291667  5.835691844512196 14.821782187500002  C 5.571665434451222 15.07920794270834  5.40745389354675 15.445544576822922  5.343057221798782 15.92079208984375  C 5.317298545477644 16.066006608072918  5.301199377540652 16.207920800781253  5.294759717987806 16.34653466796875  C 5.288320058434961 16.485148535156252  5.27866055640244 16.613861406250003  5.2657812118902445 16.73267328125  C 5.252901880081303 16.75907592447917  5.240022541920732 16.782178235677087  5.227143197408537 16.801980214843752  C 5.214263852896341 16.821782194010417  5.201384514735773 16.844884505208334  5.188505182926829 16.8712871484375  C 4.68621105182927 16.83168319010417  4.17747724847561 16.785478567708335  3.662303772865854 16.732673281249998  C 3.147130297256098 16.679867994791664  2.673814672256098 16.620462057291665  2.242356897865854 16.55445546875  C 1.8108991234756107 16.48844888020833  1.4470578633130091 16.422442278645832  1.1508331173780493 16.3564356640625  C 0.8546083714430897 16.290429049479165  0.6678579903455286 16.22442244791667  0.5905819740853664 16.158415859374998  C 0.4746679496951225 16.066006614583333  0.3877324250508135 15.788778893229168  0.3297754001524395 15.326732695312499  C 0.2718183752540656 14.864686497395834  0.294357215447155 14.264026432291669  0.3973919207317078 13.524752499999998  C 0.46178860518292736 13.115511575520832  0.6260001460873988 12.801980221354166  0.8900265434451226 12.5841584375  C 1.154052940802846 12.366336653645833  1.466376854674797 12.1947194921875  1.8269982850609763 12.069306953124999  C 2.1876197154471546 11.943894414062498  2.557900647865854 11.82838286458333  2.9378410823170737 11.7227723046875  C 3.317781516768293 11.617161744791666  3.6558641069613835 11.4719472265625  3.952088852896342 11.287128749999999  C 4.183916914380083 11.128712903645834  4.361007793445123 10.983498385416668  4.483361490091465 10.8514851953125  C 4.605715186737806 10.719472005208335  4.6926507113821145 10.584158476562502  4.744168064024391 10.445544609374998  C 4.795685416666668 10.306930742187498  4.821444092987806 10.165016549479166  4.8214440929878055 10.01980203125  C 4.821444092987806 9.874587513020836  4.815004427083334 9.716171673177087  4.80212509527439 9.54455451171875  C 4.776366418953254 9.280528105468752  4.689430894308944 9.072607311197917  4.541318521341464 8.92079212890625  C 4.393206148373984 8.768976946614583  4.228994607469513 8.613861432291666  4.048683898628049 8.4554455859375  C 3.945649206046749 8.389438984375001  3.8587136814024396 8.283828424479168  3.7878773246951223 8.138613906249999  C 3.717040967987806 7.993399388020833  3.6558641196646353 7.848184869791667  3.604346779725611 7.702970351562499  C 3.5528294270833345 7.544554505208333  3.501312080792683 7.366336686197917  3.449794740853659 7.168316894531249  C 3.372518724593496 7.141914251302084  3.2952427019817074 7.10231029296875  3.217966673018293 7.049505019531249  C 3.1535699885670736 6.996699733072916  3.0859534679878053 6.917491809895832  3.015117111280488 6.811881249999999  C 2.9442807545731715 6.706270690104167  2.8766642339939033 6.561056171874999  2.8122675495426828 6.376237695312499  C 2.747870865091464 6.191419218749998  2.7221121887703252 6.016501725260415  2.7349915205792685 5.851485214843749  C 2.7478708523882123 5.686468704427083  2.7800691946138216 5.54455451171875  2.8315865472560975 5.4257426367187485  C 2.8831038998983742 5.280528118489583  2.9539402502540657 5.161716236979165  3.044095598323171 5.069306992187499  C 3.031216266514228 4.6468647526041655  3.0505352705792688 4.217821848958333  3.1020526105182933 3.7821782812499993  C 3.1535699631605696 3.425742643229166  3.2372856516768294 3.0429043619791663  3.3531996760670735 2.6336634374999996  C 3.469113700457317 2.224422513020833  3.642984743394309 1.8547855468749996  3.874812804878049 1.5247525390624994  C 4.080882190040651 1.2079208593749995  4.312710251524391 0.9504951171874996  4.570296989329268 0.7524753124999994  C 4.827883727134147 0.5544555078124995  5.088690294715446 0.3993399934895828  5.35271669207317 0.28712876953124944  C 5.616743089430896 0.17491754557291614  5.883989329268294 0.0990099544270828  6.154455411585365 0.05940599609374944  C 6.42492149390244 0.019801998697916476  6.68894789761179 0  6.946534622713414 0  C 7.590501454522358 0  8.170071608231707 0.13861388020833312  8.685245083841464 0.4158416406249994  C 9.20041855945122 0.6930694010416658  9.586798659806911 0.9900991015624991  9.844385384908538 1.3069307421874994  C 10.011816761941057 1.531353190104166  10.118071290650407 1.7392739843749994  10.163148971036586 1.9306931249999992  C 10.208226651422764 2.1221122656249993  10.269403499745934 2.3432343749999998  10.346679516006096 2.5940594531249994  C 10.101972122713414 2.7392739713541663  9.841165555132115 2.953795423177083  9.564259813262195 3.2376238085937494  C 9.287354071392278 3.5214521940104158  9.045866507876017 3.808580904947916  8.839797122713414 4.0990099414062495  C 8.582210384908537 4.468646907552083  8.38902033155488 4.877887832031249  8.260226962652439 5.326732714843749  C 8.13143359375 5.77557759765625  8.034838567073171 6.191419179687499  7.97044188262195 6.574257460937499  C 7.906045198170732 7.036303671874999  7.873846855945122 7.498349876302083  7.873846855945122 7.96039607421875  C 7.7708121633638205 8.07920794921875  7.693536140752033 8.21122115234375  7.642018788109757 8.35643568359375  C 7.5905014354674805 8.48844888671875  7.558303093241871 8.643564401041667  7.545423761432928 8.8217822265625  C 7.532544429623985 9.000000052083333  7.558303105945123 9.194719524739583  7.622699790396342 9.405940644531249  C 7.6870964748475625 9.630363092447915  7.757932825203254 9.80198025390625  7.835208841463416 9.920792128906248  C 7.912484857723579 10.039604003906248  7.9833212080792695 10.1320132421875  8.047717892530489 10.19801984375  C 8.124993908790652 10.277227760416668  8.202269931402439 10.330033040364583  8.279545960365853 10.35643568359375  C 8.331063313008132 10.567656803385416  8.382580659298782 10.765676608072916  8.434097999237803 10.95049509765625  C 8.485615351880082 11.108910944010418  8.546792200203253 11.270627115885418  8.617628544207317 11.43564361328125  C 8.688464888211382 11.600660110677087  8.775400412855692 11.72277232421875  8.878435118140244 11.801980253906251  C 8.968590478912601 11.88118817057292  9.039426829268292 11.947194772135417  9.090944169207317 12.000000058593749  C 9.14246150914634 12.052805345052082  9.18431935340447 12.102310292968749  9.216517701981706 12.14851490234375  C 9.248716050558945 12.19471951171875  9.268035054623985 12.257425781250003  9.27447471417683 12.336633710937498  Z M 19.107848246951214 15.584158398437499  C 19.346115967987803 15.76897688802083  19.51676718114837 16.006600651041666  19.619801981707315 16.29702970703125  C 19.671319334349594 16.48184818359375  19.713177178607726 16.706270625000002  19.745375514481708 16.97029703125  C 19.777573850355694 17.2343234375  19.793673018292683 17.50165016927083  19.793673018292683 17.772277226562498  C 19.793673018292683 18.04290428385417  19.774354014227644 18.29702969401042  19.73571600609756 18.53465345703125  C 19.697077997967483 18.772277220052086  19.63912098577236 18.950495039062503  19.561844969512197 19.0693069140625  C 19.510327616869922 19.14851483072917  19.358995407774394 19.22772275390625  19.107848342225612 19.30693068359375  C 18.856701276676834 19.38613861328125  18.54437736280488 19.458745872395834  18.17087660060976 19.5247524609375  C 17.797375838414638 19.590759049479168  17.385237061737808 19.653465319010415  16.93446027057927 19.71287126953125  C 16.48368347942074 19.772277220052082  16.02968685848578 19.82178216796875  15.572470407774393 19.86138611328125  C 15.115253957063015 19.90099005859375  14.674136674288622 19.933993359375002  14.249118559451224 19.960396015625  C 13.824100444613824 19.986798671875  13.450599682418702 19.99999999348958  13.128616272865859 19.99999998046875  C 12.806632863313014 19.99999996744792  12.436351930894315 19.986798645833336  12.017773475609761 19.960396015625  C 11.599195020325208 19.933993385416667  11.164517403455289 19.900990084635417  10.713740625000005 19.86138611328125  C 10.262963846544721 19.821782141927088  9.81862672764228 19.778877851562502  9.380729268292686 19.7326732421875  C 8.942831808943092 19.6864686328125  8.540352534298785 19.63366335286458  8.173291444359762 19.574257402343747  C 7.806230354420737 19.51485145182292  7.497126270325207 19.455445514322918  7.245979192073175 19.39603958984375  C 6.9948321138211424 19.33663366536458  6.837060238821143 19.280528053385417  6.772663567073175 19.22772275390625  C 6.669628874491876 19.135313509114585  6.585913185975615 18.858085787760416  6.521516501524394 18.39603958984375  C 6.457119817073175 17.933993391927082  6.476438821138215 17.339933984375  6.579473513719516 16.6138613671875  C 6.643870198170736 16.191419127604167  6.808081739075208 15.874587441406248  7.072108136432931 15.66336630859375  C 7.336134533790655 15.452145175781249  7.648458447662605 15.280528014322917  8.009079878048784 15.148514824218749  C 8.369701308434964 15.016501634114581  8.739982240853662 14.900990084635415  9.119922675304883 14.80198017578125  C 9.4998631097561 14.702970266927085  9.837945699949191 14.554455416666666  10.13417044588415 14.356435625  C 10.365998507367893 14.198019778645834  10.543089386432932 14.052805260416667  10.665443083079271 13.9207920703125  C 10.787796779725614 13.788778880208334  10.877952134146348 13.656765677083333  10.935909146341467 13.5247524609375  C 10.993866158536594 13.392739244791665  11.022844664634153 13.25412538411458  11.02284466463415 13.108910878906247  C 11.02284466463415 12.963696373697914  11.016404998729676 12.798679869791666  11.003525666920735 12.613861367187498  C 10.977766990599598 12.349834960937498  10.887611636178864 12.141914166666666  10.733059603658539 11.990098984374997  C 10.578507571138216 11.838283802083332  10.411076194105693 11.689768951822915  10.230765472560979 11.544554433593747  C 10.140610111788622 11.465346516927081  10.060114259400407 11.353135292968748  9.989277915396343 11.207920761718748  C 9.918441571392279 11.062706230468748  9.85726472306911 10.917491712239581  9.805747370426833 10.772277207031248  C 9.754230017784556 10.613861360677085  9.702712671493906 10.435643541666666  9.65119533155488 10.237623750000001  C 9.573919315294718 10.211221106770834  9.49664329268293 10.171617148437502  9.419367263719515 10.118811875  C 9.354970579268295 10.066006588541669  9.287354058689028 9.986798665364585  9.21651770198171 9.88118810546875  C 9.145681345274392 9.775577545572917  9.078064824695124 9.63036302734375  9.013668140243905 9.44554455078125  C 8.949271455792685 9.26072607421875  8.923512779471547 9.085808580729166  8.93639211128049 8.9207920703125  C 8.949271443089433 8.755775559895833  8.981469785315042 8.62046203125  9.032987137957317 8.514851484375  C 9.084504490599594 8.38283828125  9.155340840955287 8.264026399739583  9.245496189024392 8.15841583984375  C 9.232616857215449 7.735973600260417  9.25193586128049 7.306930696614584  9.303453201219513 6.871287128906251  C 9.35497055386179 6.501650162760417  9.43546640625 6.115511549479167  9.544940758384149 5.7128712890625  C 9.654415110518295 5.310231028645833  9.825066323678863 4.937293736979167  10.056894397865854 4.5940594140625  C 10.262963783028457 4.277227734375001  10.494791844512195 4.0198019921875  10.752378582317073 3.8217821875  C 11.009965320121953 3.6237623828125005  11.273991723831303 3.468646868489584  11.544457793445122 3.3564356445312504  C 11.814923863058944 3.244224420572918  12.085389932672763 3.1683168294270843  12.355856002286586 3.1287128710937506  C 12.626322071900407 3.089108912760418  12.88390880335366 3.069306933593751  13.128616196646341 3.069306933593751  C 13.785462372967478 3.069306933593751  14.371472192581297 3.2079207942708345  14.886645655487804 3.4851485156250006  C 15.40181911839431 3.7623762369791676  15.781759552845532 4.059405937500001  16.02646695884146 4.376237617187501  C 16.309812360264228 4.732673255208335  16.519101581554878 5.132013190104168  16.654334622713417 5.574257421875001  C 16.789567663871953 6.016501653645834  16.889382520325206 6.429042910156251  16.95377919207317 6.8118811914062505  C 17.01817587652439 7.26072607421875  17.04393455284553 7.709570957031251  17.031055221036585 8.15841583984375  C 17.095451905487803 8.211221126302084  17.153408917682924 8.283828385416667  17.20492625762195 8.376237617187499  C 17.243564265752028 8.455445533854167  17.278982444105687 8.55775576171875  17.311180792682922 8.68316830078125  C 17.34337914126016 8.808580839843751  17.34659897738821 8.963696354166668  17.320840301067072 9.14851484375  C 17.295081624745933 9.386138606770833  17.243564278455285 9.577557747395833  17.16628826219512 9.722772265625  C 17.08901224593496 9.867986783854166  17.011736223323165 9.9801980078125  16.93446019435975 10.0594059375  C 16.844304833587397 10.151815182291667  16.741270141006098 10.211221119791666  16.62535611661585 10.237623750000001  C 16.573838763973573 10.435643554687502  16.522321417682925 10.613861373697917  16.470804077743896 10.772277207031248  C 16.419286725101625 10.917491725260415  16.354890040650403 11.062706243489583  16.277614024390243 11.207920761718748  C 16.200338008130082 11.353135279947914  16.11662231961382 11.458745839843749  16.02646695884146 11.524752441406248  C 15.92343226626016 11.617161686197914  15.830057075711379 11.696369609375  15.746341387195118 11.762376210937497  C 15.66262569867886 11.828382812499997  15.588569512195118 11.89768974609375  15.524172827743898 11.970297011718747  C 15.45977614329268 12.042904277343748  15.405038960873982 12.125412526041664  15.359961280487799 12.217821757812498  C 15.314883600101624 12.310230989583332  15.279465421747961 12.422442213541665  15.253706745426827 12.554455429687497  C 15.227948069105688 12.72607259114583  15.218288567073166 12.900990084635415  15.224728239329263 13.079207910156248  C 15.231167911585363 13.257425735677081  15.273025755843495 13.432343229166666  15.350301772103654 13.603960390624998  C 15.427577788363818 13.77557755208333  15.553151321138207 13.940594055989584  15.727022370426827 14.099009902343749  C 15.900893419715445 14.257425748697916  16.142380983231707 14.396039609375  16.451485060975607 14.514851484375  C 16.72195113058943 14.633663359375  17.02139570630081 14.735973587239585  17.34981878810975 14.821782167968749  C 17.678241869918693 14.907590748697917  17.993785619918693 15.0099009765625  18.29645003810975 15.128712851562497  C 18.599114456300814 15.247524726562498  18.869580525914632 15.399339908854163  19.107848246951214 15.584158398437499  Z " fill-rule="nonzero" fill="#ffffff" stroke="none" transform="matrix(1 0 0 1 176 115 )" />
  </g>
</svg>