<?xml version="1.0" encoding="utf-8"?>
<svg version="1.1" xmlns:xlink="http://www.w3.org/1999/xlink" width="20px" height="20px" xmlns="http://www.w3.org/2000/svg">
  <g transform="matrix(1 0 0 1 -176 -65 )">
    <path d="M 11.447056361607146 1.16322544642857  C 11.384415408519446 0.8502428668219363  11.109577407999865 0.624977303617235  10.790387834821427 0.625  L 9.209612165178571 0.625  C 8.890422592000135 0.624977303617236  8.615584591480555 0.8502428668219385  8.552943638392856 1.1632254464285714  L 8.144461495535714 3.205426897321428  C 8.097814391417863 3.435855169277075  7.934196446651383 3.6251822382454657  7.712960379464286 3.704729352678572  C 7.526855468750001 3.772112165178573  7.344656808035715 3.8476562500000004  7.166364397321427 3.9313616071428568  C 7.076104678320421 3.973627644676454  6.977665045929632 3.9955586803397134  6.877999441964286 3.99560546875  C 6.746111836382713 3.99575242540587  6.61714166264005 3.9567919268444216  6.5073939732142865 3.883649553571429  L 4.774693080357143 2.7283063616071423  C 4.509079231323574 2.5512272692475877  4.15539761296371 2.5862625954843255  3.9296875000000004 2.812011718749999  L 2.81201171875 3.9296875  C 2.5862625954843255 4.15539761296371  2.5512272692475877 4.509079231323574  2.728306361607143 4.774693080357143  L 3.883649553571429 6.507603236607143  C 4.013663246164597 6.703736261515881  4.031756028042574 6.953543618322354  3.9313616071428577 7.166364397321429  C 3.8476562500000004 7.344517299107142  3.772181919642858 7.526785714285715  3.7049386160714297 7.713169642857142  C 3.625391501638324 7.93440571004424  3.4360644326699328 8.098023654810719  3.2056361607142865 8.144670758928571  L 1.1632254464285727 8.553152901785715  C 0.850319996914745 8.615778409072695  0.625077033070157 8.890501261942239  0.625 9.209612165178573  L 0.625 10.79017857142857  C 0.624977303617235 11.109368144607007  0.8502428668219375 11.384206145126587  1.1632254464285714 11.446847098214285  L 3.205426897321428 11.855329241071429  C 3.435855169277076 11.901976345189277  3.6251822382454657 12.065594289955758  3.704729352678572 12.286830357142854  C 3.772112165178573 12.473074776785715  3.8476562500000004 12.655343191964285  3.9313616071428568 12.83363560267857  C 4.031756028042573 13.046456381677645  4.0136632461645965 13.296263738484118  3.883649553571429 13.492396763392858  L 2.7283063616071423 15.225306919642858  C 2.551227269247587 15.490920768676428  2.5862625954843255 15.844602387036291  2.812011718749999 16.0703125  L 3.9296875 17.18798828125  C 4.15539761296371 17.413737404515675  4.5090792313235735 17.448772730752413  4.774693080357143 17.271693638392858  L 6.507603236607143 16.11635044642857  C 6.617350926032905 16.04320807315558  6.746321099775568 16.00424757459413  6.8782087053571415 16.00439453125  C 6.977804456742645 16.00446514119163  7.07617083024083 16.02639577057721  7.166364397321427 16.068638392857142  C 7.3445172991071415 16.15234375  7.5267857142857135 16.22788783482143  7.7131696428571415 16.29527064732143  C 7.9344057100442384 16.374817761754535  8.098023654810717 16.564144830722924  8.144670758928571 16.794573102678573  L 8.553152901785714 18.83677455357143  C 8.615778409072693 19.14968000308526  8.890501261942239 19.374922966929844  9.209612165178573 19.375  L 10.79017857142857 19.375  C 11.109368144607007 19.375022696382764  11.384206145126587 19.149757133178063  11.446847098214285 18.836774553571427  L 11.855329241071429 16.794573102678566  C 11.901976345189277 16.564144830722924  12.065594289955758 16.37481776175453  12.286830357142854 16.295270647321427  C 12.473074776785715 16.227887834821427  12.655343191964285 16.15234375  12.833635602678568 16.068638392857142  C 12.923895321679577 16.026372355323545  13.02233495407037 16.004441319660284  13.122000558035715 16.00439453125  C 13.253888163617287 16.00424757459413  13.382858337359952 16.04320807315558  13.492606026785714 16.11635044642857  L 15.225516183035717 17.271693638392858  C 15.491130032069284 17.448772730752413  15.844811650429149 17.413737404515675  16.070521763392858 17.18798828125  L 17.188197544642858 16.0703125  C 17.41394666790853 15.844602387036293  17.44898199414527 15.490920768676427  17.271902901785715 15.225306919642858  L 16.116559709821427 13.49239676339286  C 15.986478087556362 13.296301350698949  15.968305835616617 13.046492402636389  16.068638392857142 12.833635602678573  C 16.15234375 12.655482700892858  16.227818080357146 12.473284040178571  16.295061383928573 12.287039620535715  C 16.374608498361678 12.06580355334862  16.563935567330066 11.902185608582137  16.794363839285715 11.855538504464286  L 18.836565290178573 11.447056361607146  C 19.149631062176923 11.384502517333996  19.37500275011697 11.109641904525649  19.375 10.790387834821427  L 19.375 9.209612165178571  C 19.375022696382764 8.890422592000135  19.149757133178063 8.615584591480555  18.836774553571427 8.552943638392856  L 16.794573102678566 8.144461495535714  C 16.564144830722924 8.097814391417861  16.37481776175453 7.934196446651382  16.295270647321427 7.712960379464286  C 16.227887834821427 7.526855468750001  16.15234375 7.344656808035715  16.068638392857142 7.166364397321429  C 15.968243971957426 6.953543618322353  15.986336753835404 6.703736261515881  16.11635044642857 6.507603236607142  L 17.271693638392858 4.7746930803571415  C 17.448772730752413 4.5090792313235735  17.413737404515675 4.155397612963708  17.18798828125 3.929687499999999  L 16.0703125 2.812011718749999  C 15.844602387036293 2.586262595484326  15.490920768676427 2.551227269247587  15.225306919642858 2.7283063616071423  L 13.492396763392861 3.8836495535714284  C 13.382649073967096 3.956791926844421  13.253678900224433 3.99575242540587  13.121791294642858 3.995605468749999  C 13.022195543257354 3.995534858808367  12.923829169759172 3.9736042294227873  12.833635602678573 3.9313616071428563  C 12.655482700892858 3.84765625  12.473214285714286 3.772112165178571  12.286830357142858 3.7047293526785703  C 12.065594289955762 3.625182238245465  11.90197634518928 3.435855169277074  11.85532924107143 3.205426897321427  L 11.447056361607146 1.16322544642857  Z M 12.84095982142857 12.84095982142857  C 12.089158920103824 13.596938635519322  11.06616149439695 14.020726019297719  10 14.017857142857142  C 7.780810351458346 14.017857147275253  5.981954435599927 12.219001231416833  5.981954435599927 10.000000004418109  C 5.981954435599927 7.780998777419387  7.780810351458346 5.982142861560967  9.99981157845707 5.982142861560967  C 12.218812805455793 5.982142861560967  14.017668721314214 7.780998777419387  14.017668721314214 10.000000004418109  C 14.017668721314214 11.065555802946838  13.594396566133222 12.087473105217157  12.84095982142857 12.84095982142857  Z " fill-rule="nonzero" fill="#ffffff" stroke="none" transform="matrix(1 0 0 1 176 65 )" />
  </g>
</svg>