<?xml version="1.0" encoding="utf-8"?>
<svg version="1.1" xmlns:xlink="http://www.w3.org/1999/xlink" width="15px" height="9px" xmlns="http://www.w3.org/2000/svg">
  <g transform="matrix(1 0 0 1 -153 -20 )">
    <path d="M 13.544609069208985 0.9905837255957035  C 13.63293940008789 0.9002236106542965  13.709021083710937 0.7979647912988286  13.803930703623047 0.6856970720312505  C 14.01348778381836 0.8974239163476563  14.184269110458985 1.0700950337109383  14.392216373662109 1.2802120608691414  C 12.098357197011717 3.622505948144532  9.813037083339841 5.955980798710938  7.5034296244921865 8.314372924804687  C 5.19655186328125 5.967319555996093  2.9047224706933594 3.63559451609375  0.6077836263378906 1.2987600377050779  C 0.8148909824609376 1.113700279580078  1.003170388681641 0.9454386735156248  1.106479091513672 0.8530487741796868  C 1.8981625197851562 1.5995871365917962  2.7454898780664063 2.3649534490722663  3.554391425800781 3.169095528720703  C 4.785556812246093 4.393051695781251  5.995094554316407 5.638915467167969  7.2012726683984365 6.887578933027346  C 7.421398595800781 7.115474012998048  7.5502545043457046 7.133392059482423  7.782419129667968 6.893738254990234  C 9.695799919423827 4.918904197275392  11.622969190205078 2.957438667460938  13.544609069208985 0.9905837255957035  Z " fill-rule="nonzero" fill="#d7d7d7" stroke="none" transform="matrix(1 0 0 1 153 20 )" />
  </g>
</svg>