<?xml version="1.0" encoding="utf-8"?>
<svg version="1.1" xmlns:xlink="http://www.w3.org/1999/xlink" width="18px" height="17px" xmlns="http://www.w3.org/2000/svg">
  <g transform="matrix(1 0 0 1 -16 -17 )">
    <path d="M 0.75 2.5  L 0.75 1  L 17.25 1  L 17.25 2.5  L 0.75 2.5  Z M 0.75 16  L 0.75 14.416666673828125  L 17.25 14.416666673828125  L 17.25 16  L 0.75 16  Z M 8.083333326171875 11.666666673828125  L 8.083333326171875 9.833333326171871  L 17.25 9.833333326171871  L 17.25 11.666666673828125  L 8.083333326171875 11.666666673828125  Z M 8.083333326171875 7.083333326171871  L 8.083333326171875 5.249999999999998  L 17.25 5.249999999999998  L 17.25 7.083333326171871  L 8.083333326171875 7.083333326171871  Z M 4.416666673828125 11.666666673828125  L 0.75 8.458333326171873  L 4.416666673828125 5.25  L 4.416666673828125 11.666666673828125  Z " fill-rule="nonzero" fill="#000000" stroke="none" transform="matrix(1 0 0 1 16 17 )" />
  </g>
</svg>