<?xml version="1.0" encoding="utf-8"?>
<svg version="1.1" xmlns:xlink="http://www.w3.org/1999/xlink" width="18px" height="17px" xmlns="http://www.w3.org/2000/svg">
  <g transform="matrix(1 0 0 1 -16 -17 )">
    <path d="M 17.25 2.5  L 17.25 1  L 0.7499999999999993 1  L 0.7499999999999993 2.5  L 17.25 2.5  Z M 17.25 16  L 17.25 14.416666673828125  L 0.7499999999999993 14.416666673828125  L 0.7499999999999993 16  L 17.25 16  Z M 9.916666673828125 11.666666673828125  L 9.916666673828125 9.833333326171871  L 0.7499999999999993 9.833333326171871  L 0.7499999999999993 11.666666673828125  L 9.916666673828125 11.666666673828125  Z M 9.916666673828125 7.083333326171871  L 9.916666673828125 5.249999999999998  L 0.7499999999999993 5.249999999999998  L 0.7499999999999993 7.083333326171871  L 9.916666673828125 7.083333326171871  Z M 13.583333326171875 11.666666673828125  L 17.25 8.458333326171873  L 13.583333326171875 5.25  L 13.583333326171875 11.666666673828125  Z " fill-rule="nonzero" fill="#000000" stroke="none" transform="matrix(1 0 0 1 16 17 )" />
  </g>
</svg>