<?xml version="1.0" encoding="utf-8"?>
<svg version="1.1" xmlns:xlink="http://www.w3.org/1999/xlink" width="12px" height="12px" xmlns="http://www.w3.org/2000/svg">
  <g transform="matrix(1 0 0 1 -730 -20 )">
    <path d="M 0.030375000000049113 5.996250000000003  C 0.030375000000049113 9.252749999999992  2.6797500000000127 11.902500000000003  5.936625000000049 11.902500000000003  C 9.193499999999972 11.902500000000003  11.84287500000005 9.252750000000006  11.84287500000005 5.996250000000003  C 11.84287500000005 2.7390000000000043  9.193499999999972 0.09000000000000341  5.936625000000049 0.0899999999999963  C 2.6797500000000127 0.09000000000000341  0.030375000000049113 2.738624999999999  0.030375000000049113 5.996250000000003  Z M 0.7803750000000491 5.996250000000003  C 0.7803750000000491 3.1526250000000005  3.0933750000000373 0.8399999999999963  5.936625000000049 0.8399999999999963  C 8.779874999999947 0.8399999999999963  11.09287500000005 3.1526250000000005  11.09287500000005 5.996250000000003  C 11.09287500000005 8.839124999999996  8.779874999999947 11.152500000000003  5.936625000000049 11.152500000000003  C 3.0933750000000373 11.152500000000003  0.7803750000000491 8.839124999999996  0.7803750000000491 5.996250000000003  Z M 10.023446819460446 6.113563437816595  C 10.023446819460446 5.904799802380552  9.854210454896474 5.7355634378165945  9.645446819460403 5.7355634378165945  L 6.260250000000042 5.738250000000001  L 6.259500000000003 2.357999999999997  C 6.259500000000003 2.149279002506532  6.093220997493404 1.9545772028244386  5.884500000000003 1.9545772028244386  C 5.681614606404423 1.9545772028244386  5.514927652358324 2.1147744768796244  5.506875000000036 2.3175000000000026  L 5.509500000000003 6.036749999999998  C 5.5031249999999545 6.066749999999999  5.4933750000000146 6.096000000000004  5.494874999999979 6.127875000000003  C 5.502375000000029 6.318750000000001  5.651624999999967 6.464624999999998  5.836500000000001 6.482624999999999  L 9.652500000000032 6.488250000000001  C 9.852043628441152 6.476190392394734  10.023446819460446 6.3134711509919725  10.023446819460446 6.113563437816595  Z " fill-rule="nonzero" fill="#aaaaaa" stroke="none" transform="matrix(1 0 0 1 730 20 )" />
  </g>
</svg>