<?xml version="1.0" encoding="utf-8"?>
<svg version="1.1" xmlns:xlink="http://www.w3.org/1999/xlink" width="16px" height="16px" xmlns="http://www.w3.org/2000/svg">
  <g transform="matrix(1 0 0 1 -550 -18 )">
    <path d="M 5.92 7.2  L 5.928 7.2  L 7.72 8.992  L 7.056 10.592  L 4.8 8.32  L 2.1599999999999997 10.96  L 1.0399999999999996 9.824000000000002  L 3.664 7.2  L 2.96 6.496  C 2.536 6.072  2.16 5.456  1.92 4.800000000000001  L 3.68 4.800000000000001  C 3.8 5.024000000000001  3.944 5.224000000000001  4.088 5.360000000000001  L 4.8 6.080000000000001  L 5.504 5.376000000000001  C 5.984 4.88  6.4 3.872  6.4 3.2  L 0 3.2  L 0 1.6  L 4 1.6  L 4 0  L 5.6 0  L 5.6 1.6  L 9.6 1.6  L 9.6 3.2  L 8 3.2  C 8 4.296  7.408 5.7200000000000015  6.64 6.496  L 5.92 7.2  Z M 13.4 13.6  L 9 13.600000000000001  L 8 16  L 6.4 16  L 10.4 6.4  L 12 6.4  L 16 16  L 14.4 16  L 13.4 13.6  Z M 11.2 8.32  L 9.664 12.000000000000002  L 12.736 12.000000000000002  L 11.2 8.32  Z " fill-rule="nonzero" fill="#000000" stroke="none" transform="matrix(1 0 0 1 550 18 )" />
  </g>
</svg>