<?xml version="1.0" encoding="utf-8"?>
<svg version="1.1" xmlns:xlink="http://www.w3.org/1999/xlink" width="26px" height="26px" xmlns="http://www.w3.org/2000/svg">
  <g transform="matrix(1 0 0 1 -584 -13 )">
    <path d="M 25.91182169558503 13  C 25.91182169558503 5.8827519281431675  20.11724807185683 0.08817830441497113  13 0.08817830441497113  C 5.882751928143169 0.08817830441497113  0.08817830441497113 5.882751928143169  0.08817830441497113 13  C 0.08817830441497113 20.11724807185683  5.882751928143169 25.91182169558503  13 25.91182169558503  C 20.11724807185683 25.91182169558503  25.91182169558503 20.11724807185683  25.91182169558503 13  Z M 9.22093023255814 8.591085281159158  C 9.22093023255814 6.5125969090661355  10.921511627906977 4.812015513717297  13 4.812015513717297  C 15.078488372093023 4.812015513717297  16.77906976744186 6.5125969090661355  16.77906976744186 8.591085281159158  C 16.77906976744186 10.669573653252181  15.078488372093023 12.370155048601019  13 12.370155048601019  C 10.921511627906977 12.370155048601019  9.22093023255814 10.669573653252181  9.22093023255814 8.591085281159158  Z M 20.243217044422238 18.857558139534888  C 20.30620153070494 19.172480629996368  20.243217044422238 19.48740309093387  19.991279069767444 19.80232558139535  C 19.298449602561774 20.747093023255818  16.527131792787063 22.762596909066136  12.999999999999998 22.762596909066136  C 9.472868207212935 22.762596909066136  6.701550397438225 20.747093023255818  6.008720930232556 19.80232558139535  C 5.756782955577759 19.48740309093387  5.693798439771073 19.172480629996368  5.756782955577759 18.857558139534888  C 6.6385659111555215 15.582364350926602  9.598837209302324 13.314922490461484  12.999999999999996 13.314922490461484  C 16.40116279069767 13.314922490461484  19.361434118368454 15.5823643509266  20.243217044422238 18.857558139534888  Z " fill-rule="nonzero" fill="#666666" stroke="none" transform="matrix(1 0 0 1 584 13 )" />
  </g>
</svg>