<?xml version="1.0" encoding="utf-8"?>
<svg version="1.1" xmlns:xlink="http://www.w3.org/1999/xlink" width="13px" height="7px" xmlns="http://www.w3.org/2000/svg">
  <g transform="matrix(1 0 0 1 -183 -22 )">
    <path d="M 12.869739478957916 6.278350515463917  C 12.956579826319306 6.198167239404355  13 6.105956471935854  13 6.001718213058419  C 13 5.8974799541809855  12.956579826319306 5.805269186712486  12.869739478957916 5.725085910652921  L 6.799599198396793 0.12027491408934743  C 6.712758851035405 0.04009163802978455  6.612892451569807 0  6.5 0  C 6.387107548430195 0  6.287241148964597 0.04009163802978455  6.200400801603206 0.12027491408934743  L 0.13026052104208416 5.725085910652921  C 0.04342017368069485 5.805269186712486  0 5.8974799541809855  0 6.001718213058419  C 0 6.105956471935854  0.04342017368069485 6.198167239404355  0.13026052104208416 6.278350515463917  L 0.781563126252505 6.8797250859106525  C 0.8684034736138947 6.959908361970219  0.9682698730794924 7  1.0811623246492985 7  C 1.1940547762191052 7  1.2939211756847029 6.959908361970219  1.3807615230460921 6.8797250859106525  L 6.5 2.152920962199313  L 11.619238476953909 6.8797250859106525  C 11.706078824315298 6.959908361970219  11.805945223780896 7  11.918837675350701 7  C 12.03173012692051 7  12.131596526386106 6.959908361970219  12.218436873747496 6.8797250859106525  L 12.869739478957916 6.278350515463917  Z " fill-rule="nonzero" fill="#ffffff" stroke="none" transform="matrix(1 0 0 1 183 22 )" />
  </g>
</svg>