<?xml version="1.0" encoding="utf-8"?>
<svg version="1.1" xmlns:xlink="http://www.w3.org/1999/xlink" width="16px" height="16px" xmlns="http://www.w3.org/2000/svg">
  <g transform="matrix(1 0 0 1 -482 -18 )">
    <path d="M 6.875 10.625  L 3.75 13.75  L 5.416666674804688 13.75  L 5.416666674804688 15.833333325195312  L 0.208333325195313 15.833333325195312  L 0.208333325195313 10.625  L 2.291666674804688 10.625  L 2.291666674804688 12.291666674804688  L 5.416666674804688 9.166666674804688  L 6.875 10.625  Z M 10.625 13.75  L 12.1875 13.75  L 9.0625 10.625  L 10.520833325195312 9.166666674804688  L 13.75 12.395833325195312  L 13.75 10.625  L 15.833333325195312 10.625  L 15.833333325195312 15.833333325195312  L 10.625 15.833333325195312  L 10.625 13.75  Z M 5.416666674804688 2.291666674804688  L 3.75 2.291666674804688  L 6.875 5.416666674804688  L 5.416666674804686 6.875  L 2.291666674804686 3.75  L 2.291666674804686 5.416666674804688  L 0.208333325195313 5.416666674804688  L 0.208333325195313 0.208333325195313  L 5.416666674804688 0.208333325195313  L 5.416666674804688 2.291666674804688  Z M 9.0625 5.416666674804686  L 12.1875 2.291666674804688  L 10.625 2.291666674804688  L 10.625 0.208333325195313  L 15.833333325195312 0.208333325195313  L 15.833333325195312 5.416666674804688  L 13.75 5.416666674804688  L 13.75 3.645833325195312  L 10.520833325195312 6.875  L 9.0625 5.416666674804686  Z " fill-rule="nonzero" fill="#444444" stroke="none" transform="matrix(1 0 0 1 482 18 )" />
  </g>
</svg>