<?xml version="1.0" encoding="utf-8"?>
<svg version="1.1" xmlns:xlink="http://www.w3.org/1999/xlink" width="16px" height="16px" xmlns="http://www.w3.org/2000/svg">
  <g transform="matrix(1 0 0 1 -516 -18 )">
    <path d="M 8.380952374999993 8.870748303571427  L 8.380952374999993 6.084353749999999  L 0.38095237499999257 6.084353749999999  L 0.38095237499999257 8.870748303571427  L 1.9047619062499734 8.870748303571427  L 1.9047619062499734 7.825850339285714  L 3.6571428593749715 7.825850339285714  L 3.6571428593749715 15.662585035714285  L 5.180952374999947 15.662585035714285  L 5.180952374999947 7.825850339285714  L 6.857142859375017 7.825850339285714  L 6.857142859375017 8.870748303571427  L 8.380952374999993 8.870748303571427  Z M 14.095238093750027 3.472108839285714  L 15.619047625000007 3.472108839285714  L 15.619047625000007 0.25034014285714284  L 4.266666671874987 0.25034014285714284  L 4.266666671874987 3.3850340178571434  L 5.790476187499962 3.3850340178571434  L 5.790476187499962 1.9918367321428576  L 9 1.9918367321428576  L 9 15.749659857142856  L 10.666666671874964 15.749659857142856  L 10.666666671874964 1.9918367321428576  L 14.095238093750027 1.9918367321428576  L 14.095238093750027 3.472108839285714  Z " fill-rule="nonzero" fill="#000000" stroke="none" transform="matrix(1 0 0 1 516 18 )" />
  </g>
</svg>