<?xml version="1.0" encoding="utf-8"?>
<svg version="1.1" xmlns:xlink="http://www.w3.org/1999/xlink" width="24px" height="4px" xmlns="http://www.w3.org/2000/svg">
  <g transform="matrix(1 0 0 1 -39 -12 )">
    <path d="M 1.4005933236397858 0.9005933236397858  C 1.6266298698611017 0.9005933236397858  1.8429697026090341 0.99241461957185  2 1.1550000000000002  L 3.1783333203124986 2.3333333203124997  L 2 3.511666679687501  L 0.8216666796874996 2.3333333203124997  C 0.6590812992593484 2.176303022921534  0.5672600033272843 1.9599631901736032  0.5672600033272843 1.7339266439522856  C 0.5672600033272843 1.2736893596178316  0.9403560393053318 0.9005933236397858  1.4005933236397858 0.9005933236397858  Z M 20.9433333203125 2.3333333203124997  L 22.121666679687497 1.1550000000000002  C 22.277995559936898 0.998560563570023  22.490089388519213 0.9106645035721286  22.711250000000003 0.9106645035721286  C 23.171580530032493 0.9106645035721286  23.544752156584124 1.2838361301237615  23.544752156584124 1.7441666601562513  C 23.544752156584124 1.9651230847504575  23.457017869674374 2.177038316841225  23.3008333203125 2.3333333203124997  L 22.1216666796875 3.511666679687501  L 20.9433333203125 2.3333333203124997  Z " fill-rule="nonzero" fill="#f04365" stroke="none" transform="matrix(1 0 0 1 39 12 )" />
  </g>
</svg>