<?xml version="1.0" encoding="utf-8"?>
<svg version="1.1" xmlns:xlink="http://www.w3.org/1999/xlink" width="24px" height="7px" xmlns="http://www.w3.org/2000/svg">
  <g transform="matrix(1 0 0 1 -39 -13 )">
    <path d="M 2.744166679687499 1.8208333203124984  C 4.1166666796874996 0.669166640624999  5.605833359375 0.02916664062499841  6.620833320312501 0.06666667968749973  L 6.7333333203125 0.18083332031249988  C 6.775 0.22583332031249892  6.816666640625 0.2724999999999991  6.8583333203125 0.3224999999999998  C 7.359999999999999 0.919999999999999  7.6083333203125 1.5308333203124995  7.653333320312498 2.1358333203125  C 7.311666640624999 3.0358333203124985  6.522499999999997 4.09  5.422499999999999 5.012499999999999  C 4.244166679687501 6.001666679687499  2.980833320312499 6.612499999999999  2.0033333203124997 6.741666679687498  C 1.459999999999999 6.578333359374998  0.942499999999999 6.235833359374997  0.47499999999999964 5.678333320312499  C 0.42382893017002843 5.6173666175923405  0.3749072666158213 5.554546764085014  0.32833332031249896 5.489999999999998  C 0.39083332031249896 4.4716666796875  1.299166640624998 3.033333320312499  2.744166679687499 1.8208333203124984  Z M 17.380000000000003 0.06666667968749884  C 18.395000000000003 0.029999999999998472  19.883333320312502 0.6691666796874989  21.2558333203125 1.8208333203125004  C 22.700833320312498 3.033333320312501  23.608333320312504 4.470833320312499  23.6725 5.490000000000004  C 23.62570406614698 5.554598911563916  23.57650284997132 5.617420799060701  23.525000000000002 5.6783333203125  C 23.0583333203125 6.2358333203125  22.540000000000003 6.578333320312501  21.995833320312503 6.7425  C 21.020000000000007 6.612500000000001  19.7558333203125 6.000833320312498  18.577500000000004 5.012499999999999  C 17.477500000000006 4.09  16.689166679687506 3.0358333203124985  16.346666679687505 2.135833320312498  C 16.391666679687507 1.531666640624998  16.640000000000004 0.9191666406249982  17.141666679687503 0.32166667968749874  C 17.218333359375006 0.22999999999999862  17.298333359375004 0.1449999999999978  17.380000000000003 0.06666667968749884  Z " fill-rule="nonzero" fill="#ff7325" stroke="none" transform="matrix(1 0 0 1 39 13 )" />
  </g>
</svg>