<?xml version="1.0" encoding="utf-8"?>
<svg version="1.1" xmlns:xlink="http://www.w3.org/1999/xlink" width="8px" height="7px" xmlns="http://www.w3.org/2000/svg">
  <g transform="matrix(1 0 0 1 -373 -22 )">
    <path d="M 3.5462500000000006 0.20374999999999766  C 1.7892723016503709 0.20471431194868117  0.364930480384416 1.6282730975789743  0.362999999999996 3.385249999999999  C 0.364930480384416 5.142226902421022  1.7892723016503709 6.565785688051314  3.546249999999997 6.566749999999999  L 8 6.566749999999999  L 8 0.20374999999999943  L 3.5462500000000006 0.20374999999999766  Z M 5.453749999999999 3.3852500000000028  L 5.455500000000001 3.385249999999999  C 5.455500000000001 4.438749999999999  4.597999999999999 5.296250000000001  3.5462500000000006 5.296250000000001  C 2.492750000000001 5.296250000000001  1.6370000000000005 4.438749999999999  1.6370000000000005 3.3870000000000005  C 1.6370000000000005 2.333500000000001  2.494500000000002 1.4777500000000021  3.5444999999999993 1.4777500000000021  C 4.5980000000000025 1.4777500000000021  5.453749999999999 2.335250000000002  5.453749999999999 3.3852500000000028  Z " fill-rule="nonzero" fill="#f14e3e" stroke="none" transform="matrix(1 0 0 1 373 22 )" />
  </g>
</svg>