<?xml version="1.0" encoding="utf-8"?>
<svg version="1.1" xmlns:xlink="http://www.w3.org/1999/xlink" width="29px" height="28px" xmlns="http://www.w3.org/2000/svg">
  <g transform="matrix(1 0 0 1 -353 -10 )">
    <path d="M 26.0925 5.84075  L 26.0925 6  L 1.9075000000000002 6  C 1.2169206064417806 5.838759272456501  0.5467065758785352 5.608181050932449  0 5.18625  L 0 24.2945  C 0 25.346249999999998  0.8574999999999999 26.202  1.9075000000000002 26  L 26.0925 26  C 27.1425 26.202  28 25.346249999999998  28 24.2945  L 28 19.839000000000002  L 23.546249999999997 19.839  C 21.086345212160275 19.837069905120956  19.092680094879043 17.843404787839727  19.09075 15.383500000000003  C 19.093644718300002 12.924278657254353  21.08702770983125 10.931678612695428  23.54625 10.929750000000004  L 28 10.929750000000004  L 28 7.75  C 28 6.6964999999999995  27.1425 5.84075  26.0925 5.84075  Z M 28 2.661  C 28 1.6075  27.1425 0.75  26.0925 1  L 1.9075000000000002 1  C 1.1019787486528678 0.7535349809379499  0.3855055736449841 1.2627001795994666  0.1172500000000003 2  L 24.8185 2  C 25.870250000000002 2.0239999999999996  26.726 2.8815  26.726 3.9314999999999998  L 26.726 4.631499999999999  C 27.20025 4.729499999999999  27.629 4.941249999999999  28 5.2212499999999995  L 28 2.661  Z " fill-rule="nonzero" fill="#f14e3e" stroke="none" transform="matrix(1 0 0 1 353 10 )" />
  </g>
</svg>