<?xml version="1.0" encoding="utf-8"?>
<svg version="1.1" xmlns:xlink="http://www.w3.org/1999/xlink" width="16px" height="19px" xmlns="http://www.w3.org/2000/svg">
  <g transform="matrix(1 0 0 1 -109 -499 )">
    <path d="M 14.043334621093749 17.62646925390618  C 14.30324040039062 17.36688724609371  14.30324040039062 16.945235136718793  14.043334621093749 16.684933621093705  L 7.341294601562495 9.982605794921938  L 14.05754498828125 3.2664453554687043  C 14.317037048828126 3.0064856113281166  14.317037048828126 2.584815501953017  14.05754498828125 2.3245139863281565  C 13.797171525390624 2.064554242187569  13.375519398437504 2.064554242187569  13.115217882812502 2.3245139863281565  L 5.981920257812504 9.458621048828036  C 5.962457458984375 9.47387471289062  5.943408361328125 9.490693304687511  5.925564472656248 9.508609158203171  C 5.665604728515632 9.768910673828032  5.665604728515632 10.190562800781208  5.925564472656248 10.450540527343719  L 13.101421234374996 17.62646925390618  C 13.361722749999998 17.886752787109344  13.783374876953133 17.886752787109344  14.043334621093749 17.62646925390618  Z M 1 0.5  L 0 0.5  L 1 0.5  Z " fill-rule="nonzero" fill="#272636" stroke="none" transform="matrix(1 0 0 1 109 499 )" />
  </g>
</svg>