<?xml version="1.0" encoding="utf-8"?>
<svg version="1.1" xmlns:xlink="http://www.w3.org/1999/xlink" width="16px" height="19px" xmlns="http://www.w3.org/2000/svg">
  <g transform="matrix(1 0 0 1 -256 -499 )">
    <path d="M 0.9566653789062507 17.62646925390618  C 0.6967595996093789 17.36688724609371  0.6967595996093789 16.945235136718793  0.9566653789062507 16.684933621093705  L 7.658705398437505 9.982605794921938  L 0.9424550117187491 3.2664453554687043  C 0.6829629511718743 3.0064856113281166  0.6829629511718743 2.584815501953017  0.9424550117187491 2.3245139863281565  C 1.2028284746093765 2.064554242187569  1.6244806015624964 2.064554242187569  1.8847821171874983 2.3245139863281565  L 9.018079742187496 9.458621048828036  C 9.037542541015625 9.47387471289062  9.056591638671875 9.490693304687511  9.074435527343752 9.508609158203171  C 9.334395271484368 9.768910673828032  9.334395271484368 10.190562800781208  9.074435527343752 10.450540527343719  L 1.8985787656250048 17.62646925390618  C 1.638277250000001 17.886752787109344  1.2166251230468679 17.886752787109344  0.9566653789062507 17.62646925390618  Z M 14 0.5  L 15 0.5  L 14 0.5  Z " fill-rule="nonzero" fill="#272636" stroke="none" transform="matrix(1 0 0 1 256 499 )" />
  </g>
</svg>