<?xml version="1.0" encoding="utf-8"?>
<svg version="1.1" xmlns:xlink="http://www.w3.org/1999/xlink" width="20px" height="20px" xmlns="http://www.w3.org/2000/svg">
  <g transform="matrix(1 0 0 1 -146 -129 )">
    <path d="M 156 129  C 161.6 129  166 133.4  166 139  C 166 144.6  161.6 149  156 149  C 150.4 149  146 144.6  146 139  C 146 133.4  150.4 129  156 129  Z " fill-rule="nonzero" fill="#ffffff" stroke="none" />
    <path d="M 156 129.5  C 161.32 129.5  165.5 133.68  165.5 139  C 165.5 144.32  161.32 148.5  156 148.5  C 150.68 148.5  146.5 144.32  146.5 139  C 146.5 133.68  150.68 129.5  156 129.5  Z " stroke-width="1" stroke="#ff9f01" fill="none" />
  </g>
</svg>