<?xml version="1.0" encoding="utf-8"?>
<svg version="1.1" xmlns:xlink="http://www.w3.org/1999/xlink" width="20px" height="6px" xmlns="http://www.w3.org/2000/svg">
  <g transform="matrix(1 0 0 1 -41 -35 )">
    <path d="M 0.1316666796875019 4.771666679687499  L 1.6666666796875003 0.1666666796874985  C 1.9900000000000002 0.4558333593749957  2.3716666796875003 0.7474999999999987  2.813333320312502 1.0416666796874985  C 3.255000000000001 1.3358333593749983  3.705833320312502 1.5999999999999943  4.1666666796875 1.833333320312498  L 1.1283333203124997 4.8716666796875  C 0.939661638646534 5.060549707513218  0.683638216684459 5.16667651628493  0.41666667968750026 5.166666679687495  C 0.2505422129878774 5.166667000950433  0.11622763793711499 5.032352425899667  0.11622763793711499 4.866667000950429  C 0.11622763793711499 4.834375689795799  0.12144106324186055 4.802296167838492  0.1316666796875019 4.771666679687499  Z M 15.833333320312502 1.8333333203125015  C 16.72599514899038 1.3723771784481897  17.564503861311096 0.8133713789688457  18.3333333203125 0.1666666796874985  L 19.8683333203125 4.771666679687499  C 19.87855893675814 4.802296167838492  19.883772362062885 4.834375689795799  19.883772362062885 4.866667000950429  C 19.883772362062885 5.032352425899667  19.749457787012123 5.166667000950433  19.583772362062888 5.166667000950433  C 19.316666640625 5.166666679687495  19.060833320312504 5.060833359374996  18.8716666796875 4.8716666796875  L 15.833333320312502 1.8333333203125015  Z " fill-rule="nonzero" fill="#f85600" stroke="none" transform="matrix(1 0 0 1 41 35 )" />
  </g>
</svg>