<?xml version="1.0" encoding="utf-8"?>
<svg version="1.1" xmlns:xlink="http://www.w3.org/1999/xlink" width="26px" height="8px" xmlns="http://www.w3.org/2000/svg">
  <g transform="matrix(1 0 0 1 -38 -12 )">
    <path d="M 1.4750000000000014 6.6783333203125  C -0.04666667968749838 4.865  1.2358333203125014 2.5275000000000016  2.5241666796875 1.4466666796875005  C 3.8125 0.3658333593750003  6.3366666796875 -0.49166664062499965  7.858333320312501 1.3216666796875005  C 9.379999999999999 3.1350000000000016  8.5725 5.074166679687501  6.8091666796874994 6.5533333203125  C 5.046666679687501 8.0325  2.996666679687502 8.491666640625  1.4750000000000014 6.6783333203125  Z M 18.1408333203125 1.3216666796875005  C 19.6633333203125 -0.49166664062499965  22.187499999999996 0.3658333593750003  23.4758333203125 1.4466666796875005  C 24.764166640625 2.5275  26.046666640625002 4.865  24.5258333203125 6.6783333203125  C 23.0033333203125 8.491666640625  20.9533333203125 8.0325  19.1908333203125 6.5533333203125  C 17.4275 5.074166640625  16.62 3.1350000000000016  18.1408333203125 1.3216666796875005  Z " fill-rule="nonzero" fill="#ffb468" stroke="none" transform="matrix(1 0 0 1 38 12 )" />
  </g>
</svg>