<?xml version="1.0" encoding="utf-8"?>
<svg version="1.1" xmlns:xlink="http://www.w3.org/1999/xlink" width="26px" height="8px" xmlns="http://www.w3.org/2000/svg">
  <g transform="matrix(1 0 0 1 -38 -12 )">
    <path d="M 2.3099999999999987 2.4766666796875008  C 3.818333320312499 0.9683333593750003  5.7358333203125 0.3100000000000014  7.130833320312499 0.6891666796875002  L 7.1925 0.7266666796875008  C 7.4291666796874996 0.880833359375  7.653333320312498 1.0766666796875013  7.859166679687499 1.3216666796875005  C 9.379999999999999 3.1350000000000016  8.572499999999998 5.074166679687501  6.809166679687499 6.5533333203125  C 5.046666679687499 8.0325  2.9966666796874986 8.491666640625  1.4749999999999996 6.6783333203125  C 1.008429707852855 6.13894700554296  0.7620838886281849 5.4436448563544815  0.7850000000000001 4.730833320312501  C 1.0999999999999996 3.9533333203125007  1.6141666796875 3.1716666406250003  2.3099999999999987 2.4766666796875008  Z M 18.869166679687503 0.6883333203125002  C 20.263333359375 0.30916664062500043  22.1816666796875 0.9675000000000011  23.689999999999998 2.4766666796875008  C 24.385 3.170833359375001  24.899166679687497 3.9516666796875004  25.215000000000003 4.729166679687502  C 25.23825646203212 5.4425343236934225  24.99189426137056 6.13847777737527  24.525 6.6783333203125  C 23.0033333203125 8.491666640625  20.9533333203125 8.0325  19.1908333203125 6.5533333203125  C 17.4275 5.074166640625  16.62 3.1350000000000016  18.1408333203125 1.3216666796875005  C 18.365 1.0550000000000015  18.61 0.8466666796875009  18.869166679687503 0.6883333203125002  Z " fill-rule="nonzero" fill="#ff962a" stroke="none" transform="matrix(1 0 0 1 38 12 )" />
  </g>
</svg>