<?xml version="1.0" encoding="utf-8"?>
<svg version="1.1" xmlns:xlink="http://www.w3.org/1999/xlink" width="26px" height="26px" xmlns="http://www.w3.org/2000/svg">
  <g transform="matrix(1 0 0 1 -38 -12 )">
    <path d="M 25.708333320312505 13.166666679687502  C 25.708333320312505 6.148333359375002  20.0183333203125 0.4583333203125006  13 0.4583333203125006  C 5.9816666796875 0.4583333203125006  0.2916666796874994 6.148333320312501  0.2916666796874994 13.166666679687502  C 0.2916666796874994 20.1850000390625  5.9816666796875 25.875  13 25.875  C 20.0183333203125 25.875  25.708333320312505 20.185000000000002  25.708333320312505 13.166666679687502  Z M 0.7083333203125006 13.166666679687502  C 0.7083333203125006 6.378333359375002  6.2116666796875 0.875  13 0.875  C 19.7883333203125 0.875  25.291666679687495 6.3783333203125  25.291666679687495 13.166666679687502  C 25.291666679687495 19.955000039062497  19.7883333203125 25.4583333203125  13 25.4583333203125  C 6.2116666796875 25.4583333203125  0.7083333203125006 19.955  0.7083333203125006 13.166666679687502  Z " fill-rule="nonzero" fill="#ffe686" stroke="none" transform="matrix(1 0 0 1 38 12 )" />
  </g>
</svg>