<?xml version="1.0" encoding="utf-8"?>
<svg version="1.1" xmlns:xlink="http://www.w3.org/1999/xlink" width="22px" height="22px" xmlns="http://www.w3.org/2000/svg">
  <g transform="matrix(1 0 0 1 -40 -14 )">
    <path d="M 21.4166666796875 11.166666679687502  C 21.4166666796875 5.413333359375002  16.7533333203125 0.75  11 0.75  C 5.246666679687499 0.75  0.5833333203124997 5.4133333203125  0.5833333203124997 11.166666679687502  C 0.5833333203124997 16.920000039062504  5.2466666796875 21.5833333203125  11 21.5833333203125  C 16.7533333203125 21.5833333203125  21.4166666796875 16.92  21.4166666796875 11.166666679687502  Z M 1 11.166666679687498  C 1 5.644166679687499  5.477500000000001 1.1666666796874985  11 1.1666666796875003  C 16.5225 1.1666666796875003  21 5.644166679687499  21 11.166666679687498  C 21 16.689166679687496  16.5225 21.1666666796875  11 21.1666666796875  C 5.477500000000001 21.1666666796875  1 16.689166679687496  1 11.166666679687498  Z " fill-rule="nonzero" fill="#ffd671" stroke="none" transform="matrix(1 0 0 1 40 14 )" />
  </g>
</svg>