<?xml version="1.0" encoding="utf-8"?>
<svg version="1.1" xmlns:xlink="http://www.w3.org/1999/xlink" width="14px" height="7px" xmlns="http://www.w3.org/2000/svg">
  <g transform="matrix(1 0 0 1 -44 -18 )">
    <path d="M 13.362583805820243 4.753595982728072  C 13.549916399226824 4.753595982728072  13.714218124700793 4.878615738379587  13.764166679687502 5.0591666796875  C 13.848333359375005 5.3291666796875  13.916666679687502 5.604166679687502  13.967500000000001 5.884166679687503  C 13.97202624868919 5.908910172521729  13.974303310927354 5.934012607157712  13.974303310927354 5.9591666796875025  C 13.974303310927354 6.1893607919916604  13.787694112304159 6.375969990614852  13.557500000000005 6.375969990614852  C 13.35623337453287 6.375969990614852  13.183716115645655 6.232148111883724  13.147500000000004 6.034166679687502  C 13.102729132383455 5.788577246663635  13.04317642068317 5.545913838603958  12.969166679687504 5.307500000000001  C 12.953776620566021 5.2633814464258855  12.945917126132745 5.2169884656642544  12.945917126132745 5.170262662415574  C 12.945917126132745 4.940144009461534  13.132465152866203 4.753595982728072  13.362583805820243 4.753595982728072  Z M 4.560833320312504 0.514999999999997  C 5.3419484765156255 0.22794175549308626  6.167809558610568 0.08178663040064116  7 0.08333332031249974  C 7.2301186777893065 0.08333332031249796  7.416666704522768 0.2698813470459598  7.416666704522768 0.4999999999999982  C 7.416666704522768 0.7301186529540367  7.2301186777893065 0.9166666796874986  7.000000024835273 0.9166666796874986  C 6.608879218045242 0.9167397838529485  6.218604273362686 0.9530055002770634  5.834166679687499 1.0249999999999986  C 5.046559066185729 1.1733981074713729  4.295194656722156 1.473094871924074  3.621666679687504 1.9074999999999989  C 2.565127542026305 2.5883811044527416  1.7369784452018457 3.570374938135528  1.2441666796875026 4.726666679687497  C 1.18280855021478 4.888592378469902  1.0276960035417009 4.995691110090238  0.8545349456257831 4.995691110090238  C 0.6244162926717429 4.995691110090238  0.43786826593828115 4.809143083356776  0.43786826593828115 4.57902443040274  C 0.43786826593828115 4.517709276967519  0.4514006783403346 4.45714977125321  0.4775000000000027 4.401666679687498  C 1.2458296514784966 2.5994422761276894  2.7229070014608485 1.193505785236919  4.560833320312504 0.514999999999997  Z M 11.620995513708746 1.9442912965569155  C 11.723282801703512 1.9442912965569155  11.821996407329113 1.9819164850974147  11.8983333203125 2.049999999999997  C 12.376075318303517 2.507383413875491  12.787806059735328 3.02905859286788  13.1216666796875 3.599999999999998  C 13.158983531779949 3.663845071693966  13.178650097668733 3.736465726222335  13.178650097668733 3.810416660156248  C 13.178650097668733 4.040710242839602  12.99196026237085 4.227400078137478  12.761666679687497 4.227400078137478  C 12.61348790783164 4.227400078137478  12.47644011415862 4.1487625270094135  12.401666679687498 4.020833320312498  C 12.107520450007591 3.516374828667953  11.74428142044896 3.0555240896619154  11.322499999999998 2.651666679687498  C 11.246729631764701 2.5738667558378694  11.204328834021247 2.469558053838867  11.204328834021247 2.3609579762444177  C 11.204328834021247 2.1308393232903757  11.390876860754709 1.9442912965569155  11.620995513708746 1.9442912965569155  Z M 8.568333320312497 0.28250000000000064  L 8.6416666796875 0.2808333203124995  L 8.715833320312502 0.2925000000000004  C 9.395702534507926 0.4614942956606285  10.046500651007516 0.7311387425372864  10.646666679687502 1.0925000000000011  C 10.771900413514185 1.1679032736013912  10.84848020105403 1.303401460809523  10.84848020105403 1.4495833398437519  C 10.84848020105403 1.6797830912177574  10.661866431061505 1.8663968612102797  10.431666679687503 1.8663968612102797  C 10.355903407523897 1.8663968612102797  10.281572928824946 1.8457467543016113  10.2166666796875 1.806666679687499  C 9.687458843159675 1.4887500675036538  9.113985466126941 1.2511602177204253  8.515 1.1016666796875008  C 8.328133868746043 1.0563400329034192  8.196552734703722 0.8890267408103192  8.196552734703722 0.6967419106273063  C 8.196552734703722 0.4839964841529323  8.356825954266185 0.30541834622991537  8.568333320312497 0.28250000000000064  Z " fill-rule="nonzero" fill="#ffe3b6" stroke="none" transform="matrix(1 0 0 1 44 18 )" />
  </g>
</svg>