<?xml version="1.0" encoding="utf-8"?>
<svg version="1.1" xmlns:xlink="http://www.w3.org/1999/xlink" width="11px" height="18px" xmlns="http://www.w3.org/2000/svg">
  <g transform="matrix(1 0 0 1 -323 -16 )">
    <path d="M 0.6318554687499989 1.4788683363970587  L 8.4326171875 9  L 0.6307275390624996 16.52113166360294  C 0.2952213357677853 16.844683722321342  0.2952213357677853 17.36862395231101  0.6307275390624996 17.69217601102941  L 0.6875751953124987 17.746895680147055  C 0.8486199416652271 17.902369186327793  1.067328750622177 17.989751826926778  1.295416503906249 17.989751826926778  C 1.5235042571903201 17.989751826926778  1.7422130661472708 17.902369186327793  1.9032578124999984 17.746895680147055  L 10.275203124999999 9.67465877757353  C 10.2878359375 9.663801700367646  10.3002431640625 9.65251034007353  10.312424804687499 9.640784696691176  L 10.369272460937495 9.58606502757353  C 10.680946086516455 9.285353547709954  10.706075986800425 8.806538472158763  10.427473632812498 8.477123161764705  C 10.408911335955374 8.45496404191756  10.389105467597279 8.433797403563284  10.36814453125 8.413717830882353  L 10.3115224609375 8.358998161764706  L 10.307236328124999 8.35508961397059  L 1.9041601562499983 0.2531043198529414  C 1.7431154098972712 0.09763081367220855  1.52440660094032 0.010248173073217582  1.296318847656249 0.010248173073217582  C 1.068231094372178 0.010248173073217582  0.8495222854152242 0.09763081367220808  0.688477539062498 0.2531043198529414  L 0.6318554687499989 0.30782398897058855  C 0.29634926545528356 0.6313760476889878  0.29634926545528356 1.1553162776786587  0.6318554687499989 1.4788683363970587  Z " fill-rule="nonzero" fill="#999999" stroke="none" transform="matrix(1 0 0 1 323 16 )" />
  </g>
</svg>