<?xml version="1.0" encoding="utf-8"?>
<svg version="1.1" xmlns:xlink="http://www.w3.org/1999/xlink" width="16px" height="16px" xmlns="http://www.w3.org/2000/svg">
  <g transform="matrix(1 0 0 1 -348 -5 )">
    <path d="M 8 16  C 12.418277998646344 16  16 12.418277998646348  16 8  C 16 3.5817220013536524  12.418277998646344 0  8 0  C 3.581722001353653 0  0 3.5817220013536524  0 8  C 0 12.418277998646348  3.581722001353653 16  8 16  Z M 3.1333333281249995 3.1333333281250004  C 4.42319758110863 1.8473320025476272  6.17192800483785 1.1276898528648198  7.993333328125002 1.133333328125  L 8 1.126666671875  C 11.791382875050413 1.1280412140385159  14.86417720495645 4.201949768263436  14.86417720495645 7.99333289247968  C 14.86417720495645 10.754316013005775  13.210524110681117 13.246772567038661  10.666666671875 14.320000000000002  C 9.815466094003787 14.68277724645328  8.899726611587921 14.869781133476076  7.974443004085601 14.869781133476076  C 4.182087719037672 14.869781133476076  1.1077763322106011 11.795469746649008  1.1077763322106011 8.003114461601077  C 1.1077763322106011 6.174934874505058  1.8368040385482756 4.422229136149932  3.1333333281249995 3.1333333281250004  Z M 10.666666671875 8.386666671875  C 10.780538596376473 8.28072561516838  10.84522204941979 8.132199056559942  10.84522204941979 7.976666671875  C 10.84522204941979 7.821134287190057  10.780538596376477 7.672607728581619  10.666666671875 7.566666671875001  L 6.96 4.119999999999999  C 6.855415240427014 4.021367219278377  6.717091456987473 3.966430031764269  6.5733333359375 3.966430031764269  C 6.26208223701828 3.966430031764269  6.009763367701769 4.21874890108078  6.009763367701769 4.529999999999999  C 6.009763367701769 4.685194628943441  6.073761795012938 4.833520604652095  6.186666671875 4.9399999999999995  L 9.433333328125 8  L 6.186666671875 11.02  C 6.0731460069657945 11.12613720558685  6.008711802679418 11.27459070886458  6.008711802679418 11.43  C 6.008711802679418 11.739990911640175  6.260009088359825 11.991288197320584  6.57 11.991288197320584  C 6.712338320675035 11.991288197320584  6.8493605174453 11.937210350127708  6.953333328125 11.84  L 10.666666671875 8.386666671875  Z " fill-rule="nonzero" fill="#ff9e01" stroke="none" transform="matrix(1 0 0 1 348 5 )" />
  </g>
</svg>