<?xml version="1.0" encoding="utf-8"?>
<svg version="1.1" xmlns:xlink="http://www.w3.org/1999/xlink" width="161px" height="106px" xmlns="http://www.w3.org/2000/svg">
  <g transform="matrix(1 0 0 1 -117 -51 )">
    <path d="M 87.65514124778406 105.50977167167254  C 86.52104507379205 105.50977167167254  85.43369404851519 105.05672422038064  84.63366136876282 104.25086472580209  L 79.43046755685171 98  L 25.63562429550841 98  C 25.63490259530752 99.034450660573  25.634180894788678 99.03445102859325  25.63345919421438 99.03445102859325  C 24.458023683047895 99.03445102859325  23.505144929649575 98.07915107000566  23.505144929649575 96.90072885087743  C 23.505144929649575 95.7182335008252  24.473209778692755 94.7498783582956  25.63562429550841 94.75757575757575  L 35.32612911178458 94.75757575757575  C 34.5782473629669 93.450564874175  34.186099041700714 91.97620142402695  35 90.47607550021286  L 35 28.328917821897168  C 34.19175609853828 23.601613335041197  38.01494400545146 19.770632681515647  42.730267744699276 19.770632681515647  L 49.14723095378786 19.77064595572582  L 49.14723095378786 17.617642846085396  C 49.149539249637755 12.890298283939186  52.97274371950935 9.059255147825366  57.68810740449589 9.059255147825366  C 57.69312036107198 9.059255147825366  57.698133316674976 9.059259572473808  57.70314626547978 10  L 108.97009843375713 10  C 108.97650911174972 9.05925394258713  108.98291980397765 9.059246702991013  108.98933049823884 9.059246702991013  C 113.7040104698242 9.059246702991013  117.52601374547646 12.890961449417098  117.52601374547646 17.617621127310827  C 117.52601374547646 17.617628368068388  117.52601374546737 17.617635605327838  117 17.617642846085396  L 117 79.76480052440108  C 117.52601374544898 81.32214590734937  117.11139907931606 82.78103546770389  116.38702541761184 83  L 128.20799276097168 83  C 129.3897416404568 84.03860338248384  130.34704833813058 84.98972754944079  130.3470482358324 86.18083788652814  C 130.3470482358324 87.36333323658035  129.39608412979808 88.32307239057243  128.21014102349054 88  L 102.56807183812741 88  L 102.56807183812741 90.47607550021286  C 102.56807183812741 92.0335234413097  102.1535594702096 93.49231044351565  101.42918591080364 94.7498783582956  L 102.57451662568381 94.7498783582956  C 103.74982071761252 94.7498783582956  104.70497915276745 95.70110508340102  104.70497915276745 96.89221542048837  C 104.70497915276745 98.07471077054068  103.73693124479779 99.03444992453267  102.57451662568381 98  L 91.33265958076795 98  C 92.33342281530382 100.71826273302922  92.06296313452056 102.86879197939062  90.6766211268053 104.25086472580209  C 89.87658844705291 105.05672422038057  88.78923742177615 105.50977167167254  87.65514124778406 105.50977167167254  Z M 80.0992931854139 87.58814069816951  L 87.24277714238512 94.74977580014713  L 94.0378333784462 94.7498783582956  C 96.3884416646016 94.7498783582956  98.29446190757582 92.84332247958514  97 90.45474340531754  L 97 28.228205720035564  C 98.29446190757582 25.914493991640576  96.44818382226799 24.05511486125622  94.1704118653222 24  L 42.58715371800001 24  C 40.309279462839015 24.055114963814415  38.46300137753127 25.92310897867561  39 28.228205720035564  L 39 90.45453828902042  C 38.46300137753127 92.82609281318936  40.38620772065595 94.74977590270524  42.717583942357145 94  L 75.15470926148309 94  L 74.0563334273714 93.64655789891246  C 72.97242926311145 92.56564221031022  72.54850336527812 90.98579061898032  72.94517021406375 89.50556774062464  L 70.9279518111867 87.48106999109872  C 68.34599205260177 89.40770837120179  65.21314978792931 90.44826482559678  61.99450726257985 90.44826482559678  C 53.73114770729751 90.44826482559678  47.03237123073394 83.73246717786192  47.03237123073394 75.44811094386768  C 47.03237123073394 71.48149899127648  48.5995205581157 67.67636848476057  51.39093760507807 64.86525608382682  C 54.19759177691706 62.041436137792935  58.010243958084196 60.454184371566484  61.98653594863329 60.454184371566484  C 70.24752259866011 60.454184371566484  76.94437545544156 67.1680535117221  76.94437545544156 75.45003081105722  C 76.94437545544156 78.69655610479076  75.893456840113 81.85540297517119  73.94953409072133 84.4519127210805  L 75.96879835560387 86.47641047060645  C 77.4448655548536 86.07677140833901  79.02134702008625 86.50108427406235  80.0992931854139 87.58814069816951  Z M 12.82113683974764 34.766492446495654  C 12.82113683974764 38.31591940091134  9.951050484702396 41.19329846549792  6.410619543406835 41.19329846549792  C 2.8701886021113197 41.19329846549792  0.00010224706607661022 38.31591940091134  0.00010224706607661022 34.766492446495654  C 0.00010224706607661022 31.21706549207987  2.8701886021113197 28.339686427493287  6.410619543406835 28.339686427493287  C 9.951050484702396 28.339686427493287  12.82113683974764 31.21706549207987  12.82113683974764 34.766492446495654  Z M 145.30499009200483 21.912880408491024  C 145.30499009200483 25.462307362906802  142.4349037369596 28.339686427493287  138.8944727956641 28.339686427493287  C 135.35404185436855 28.339686427493287  132.48395549932332 25.462307362906802  132.48395549932332 21.912880408491024  C 132.48395549932332 18.36345345407533  135.35404185436855 15.486074389488751  138.8944727956641 15.486074389488751  C 142.4349037369596 15.486074389488751  145.30499009200483 18.36345345407533  145.30499009200483 21.912880408491024  Z M 14.957839506808229 69.04275694299318  C 15.547588717332882 69.04275694299318  16.026241963871563 69.50324302991599  16.026242066169775 70.09243949069237  L 16.026242066169775 72.25610864778054  L 18.18442740956773 72.25610864778054  C 18.766163714875656 72.26772608980235  19.23166724099517 72.74389570284444  19.231551837873237 73.3272258485236  C 19.231551837873237 73.91847357482871  18.77213055349051 74.39834304926664  18.18442740956773 74.39834315182475  L 16.026242066169775 74.39834315182475  L 16.026242066169775 76.5621148670614  C 16.014599136848965 77.14528916005291  15.539652242178423 77.61191427438952  14.957839506808229 77.61179741476056  C 14.378835221452013 77.61179741476056  13.891726798054957 77.1425858269399  13.889437049744897 76.5621148670614  L 13.889437049744897 74.39834315182475  L 11.731251706346942 74.39834315182475  C 11.149555467040871 74.38667063855027  10.684113012808202 73.91051693358837  10.684229576256637 73.3272258485236  C 10.684229576256637 72.73597812221838  11.14354856242416 72.25610864778054  11.731251706346942 72.25610864778054  L 13.889437049744897 72.25610864778054  L 13.889437049744897 70.09243949069237  C 13.901079978280519 69.50926523758955  14.376026811222188 69.04264013922146  14.957839506808229 69.04275694299318  Z M 160.26272735174703 64.75818537675603  C 160.26284385947991 64.17489433157651  159.7974014211753 63.69874068850032  159.21570522165678 63.68706817601298  L 157.05741758004356 63.68706817601298  L 157.05741758004356 61.5233990189249  C 157.0551278317335 60.94292805904639  156.5851114311462 60.47357717050071  156.00610714579008 60.47357717050071  C 155.42429441041986 60.47346031087185  154.93225549293945 60.940224725933454  154.92061256361865 61.5233990189249  L 154.92061256361865 63.68706817601298  L 152.7624273225189 63.68706817601298  C 152.1834275245978 63.689363686108905  151.71526614246935 64.1605743856213  151.71526614246935 64.74104992459311  C 151.71526614246935 65.31517044009301  152.18546538889206 65.82930257749909  152.7624273225189 65.82930268005728  L 154.92061256361865 65.82930268005728  L 154.92061256361865 67.99297173458726  C 154.92061256361865 68.58216829792174  155.3992659124556 69.042756840435  155.98901512298022 69.04275694299318  C 156.57086685896934 69.04287263824243  157.045829637332 68.57618623559313  157.05741758004356 67.99297173458726  L 157.05741758004356 65.82930268005728  L 159.21570522165678 65.82930268005728  C 159.80330616966256 65.82930268005728  160.26272735174703 65.34943310306124  160.26272735174703 64.75818537675603  Z M 27.244672819808997 2.118338455435564  L 27.244672819808997 5.310460623476164  L 30.428602366837552 5.3103580653276055  C 31.326166804546883 5.3103580653276055  32.052688728769965 6.023649988389636  32.052688728769965 6.917033917721282  C 32.052688728769965 7.803956683695179  31.326166804546883 8.523709770114959  30.428602366837552 8.523709770114959  L 27.244775118024204 8.523709770114959  L 27.244775118024204 11.715729482565099  C 27.244775118024204 12.615472017105931  26.533188733217695 13.343839988002646  25.642171381280075 13.343839988002646  C 24.755318859824353 13.338052602071285  24.039429359040856 12.615657144023412  24.039429359040856 11.726532350411997  L 24.03946534632074 8.523607211966398  L 20.855535901590393 8.523607211966398  C 19.969371655645205 8.523607211966398  19.23506298641613 7.8053403197095905  19.231551837873237 6.916931359572722  C 19.231551837873237 6.030008593598825  19.958073762096273 5.310255507179046  20.855535901590393 5.310255507179046  L 24.039363048105578 5.310255507179046  L 24.039363048105578 2.118338455435564  C 24.039363048105578 1.2185959208947308  24.751051731127244 0.49022794999810876  25.642069083064868 0.49022794999810876  C 26.52664164744603 0.49022794999810876  27.244672819808997 1.2185959208947308  27.244672819808997 2.118338455435564  Z M 4.265102339915855 99.0344510286976  C 3.089666828749367 99.0344510286976  2.1367880753510464 98.07915107011002  2.1367880753510464 96.90072885098178  C 2.1367880753510464 95.71823350092956  3.1048529243946374 94.7498783582956  4.267267543508507 94  L 17.10108931078961 94  C 18.276393402718227 94.7498783582956  19.231551837873237 95.70110508340102  19.231551837873237 96.89221542048837  C 19.231551837873237 98.07471077054059  18.26350392990348 99.03444992453267  17.10108931078961 98  L 4.267267543508507 98  C 4.266545809210864 99.03445066064256  4.265824074586945 99.0344510286976  4.265102339915855 99.0344510286976  Z M 102 28.328998661271157  L 102 84.03860338248384  L 108.99782125007151 84.03860338248384  C 111.35018548013227 84.02692373247024  113.25130687671546 82.11240202404615  113 79.75403191880487  L 113 17.62841145168152  C 113.2524037125992 15.254703206393389  111.34628117140988 13.343839885444455  108.99782125007151 14  L 57.67317288843143 14  C 55.3217682377427 13.356812062613965  53.422089068914964 15.270894060131207  53.42094318255466 17.628308893533053  L 53.42094318255466 20  L 94.01225882465069 20  C 94.01866950264328 19.77063147654737  94.02508019487122 19.770624236951342  94.0314908891324 19.770624236951342  C 98.74617086071775 19.770624236951342  102.56817413637002 23.602338983377425  102 28.328998661271157  Z M 3.2053608696618916 34.76644116742137  C 3.2053608696618916 36.54115465878955  4.6404040586346325 37.979844202562006  6.410619543406835 37.979844202562006  C 8.180835028179038 37.979844202562006  9.61587821715178 36.54115465878955  9.61587821715178 34.76644116742137  C 9.61587821715178 32.991727676053195  8.180835028179038 31.55303813228064  6.410619543406835 31.55303813228064  C 4.6404040586346325 31.55303813228064  3.2053608696618916 32.991727676053195  3.2053608696618916 34.76644116742137  Z M 135.6892653221758 21.91288045977012  C 135.6892653221758 23.687565602166952  137.1242855880128 25.12623216455747  138.8944727956641 25.12623216455747  C 140.66466000331533 25.12623216455747  142.09968026915232 23.687565602166952  142.09968026915232 21.91288045977012  C 142.09968026915232 20.138195317373285  140.66466000331533 18.69952875498276  138.8944727956641 18.69952875498276  C 137.1242855880128 18.69952875498276  135.6892653221758 20.138195317373285  135.6892653221758 21.91288045977012  Z M 51.28268272645393 75.46956291071636  C 51.28268272645393 81.38604261900831  56.0667810890207 86.18229707566412  61.968265495320345 86.18229707566412  C 64.8022582366361 86.18229707566412  67.52017801454085 85.05363726232538  69.52411350654137 83.04460990943923  C 71.52804901626631 81.0355825387838  72.65384826418676 78.31075667509276  72.65384826418676 75.46956291071636  C 72.65384826418676 69.55308320242442  67.86974990161998 64.75682874576869  61.968265495320345 64.75682874576869  C 59.13427275400468 64.75682874576869  56.41635297609994 65.88548855910734  54.412417484099315 67.8945159119935  C 52.40848197437447 69.90354328264901  51.28268272645393 72.62836914633995  51.28268272645393 75.46956291071636  Z M 49.14087899557154 34.76650188845632  C 47.964257031777294 34.76650188845632  47.01041646848791 33.81023767607896  47.01041646848791 32.63062598962121  C 47.010359466451 31.448263065446795  47.965717001995245 30.483053027994696  49.145082691269096 31  L 72.6523927222127 31  C 73.83254576676936 30.51515151515152  74.78924883659609 31.441054923902  74.78924883659609 32.62420666337707  C 74.78924883659609 33.80735840285205  73.83254576676936 34.76649239521655  72.6523927222127 34.76649239521655  C 72.6523927222127 34.76649239521655  72.6523927222127 34.76649239521655  72.6523927222127 36  L 49.14723095378786 36  C 49.14511364026491 34.7664987240395  49.14299631850527 34.76650188845632  49.14087899557154 34.76650188845632  Z M 49.13229541437129 46  C 47.96005721651858 45.47660003986441  47.01038743954082 44.523571047408126  47.01038743954082 43.34835368601724  C 47.01038743954082 42.16585833596502  47.96128774518215 41.19329846549792  49.13229541437129 42  L 83.35155783788595 42  C 84.52256540477683 41.19329846549792  85.47342731489421 42.14442263245478  85.47342731489421 43.33553296954212  C 85.47342731489421 44.518028319594436  84.5225655070751 45.47776747358642  83.35155783788595 46  L 49.13229541437129 46  Z M 49.14293442875022 56  C 47.96749891758374 56.21212121212121  47.01040898405826 55.233849123208074  47.01040898405826 54.055426904079845  C 47.01040898405826 52.87293155402753  47.963436007701006 51.9045733387515  49.14293442875022 53  L 64.10936698563377 53  C 65.28681934008127 51.90457344130969  66.24187547702107 52.8558001664151  66.24187547702107 54.046910400944356  C 66.24187547702107 55.22940575099658  65.28886540668309 56.18914490498856  64.10936698563377 56  L 49.14293442875022 56  Z " fill-rule="nonzero" fill="#8a96a3" stroke="none" transform="matrix(1 0 0 1 117 51 )" />
  </g>
</svg>