<?xml version="1.0" encoding="utf-8"?>
<svg version="1.1" xmlns:xlink="http://www.w3.org/1999/xlink" width="169px" height="170px" xmlns="http://www.w3.org/2000/svg">
  <defs>
    <linearGradient gradientUnits="userSpaceOnUse" x1="-19.94736842105267" y1="33.26315789473681" x2="47.15789473684205" y2="17.473684210526244" id="LinearGradient988">
      <stop id="Stop989" stop-color="#d7d7d7" stop-opacity="0" offset="0" />
      <stop id="Stop990" stop-color="#d7d7d7" offset="1" />
    </linearGradient>
  </defs>
  <g transform="matrix(1 0 0 1 -891 -372 )">
    <path d="M 0.5733763997142205 101.67283562487324  L 9.390057143086779 92.85615466418852  C 13.210912795122908 131.04285690271064  44.65675506611286 160  84 160  C 126 160  159 127  159 85  C 159 43  126 10  84 10  C 66.16500546897203 10  49.952903947749064 15.950607702618697  37.201428036352354 26.01409051481068  L 30.05910258016127 18.871765058677113  C 44.64474323898298 7.029367482240048  63.36382150827694 0  84 0  C 131.60000000000002 0  169 37.39999999999998  169 85  C 169 132.60000000000002  131.60000000000002 170  84 170  C 42.12067717729883 170  8.136962158115239 141.04943805376922  0.5733763997142205 101.67283562487324  Z " fill-rule="nonzero" fill="url(#LinearGradient988)" stroke="none" transform="matrix(1 0 0 1 891 372 )" />
  </g>
</svg>