<?xml version="1.0" encoding="utf-8"?>
<svg version="1.1" xmlns:xlink="http://www.w3.org/1999/xlink" width="60px" height="60px" xmlns="http://www.w3.org/2000/svg">
  <g transform="matrix(1 0 0 1 0 -1 )">
    <path d="M 30 2  C 46.24 2  59 14.759999999999998  59 31  C 59 47.24  46.24 60  30 60  C 13.759999999999998 60  1 47.24  1 31  C 1 14.759999999999998  13.759999999999998 2  30 2  Z " fill-rule="nonzero" fill="#ffffff" stroke="none" />
    <path d="M 30 2  C 46.24 2  59 14.759999999999998  59 31  C 59 47.24  46.24 60  30 60  C 13.759999999999998 60  1 47.24  1 31  C 1 14.759999999999998  13.759999999999998 2  30 2  Z " stroke-width="2" stroke="#02a7f0" fill="none" />
  </g>
</svg>