<?xml version="1.0" encoding="utf-8"?>
<svg version="1.1" xmlns:xlink="http://www.w3.org/1999/xlink" width="120px" height="128px" xmlns="http://www.w3.org/2000/svg">
  <defs>
    <linearGradient gradientUnits="userSpaceOnUse" x1="141.46381578947364" y1="81.57971571263926" x2="60" y2="128" id="LinearGradient1003">
      <stop id="Stop1004" stop-color="#ffffff" stop-opacity="0" offset="0" />
      <stop id="Stop1005" stop-color="#d7d7d7" offset="1" />
    </linearGradient>
  </defs>
  <g transform="matrix(1 0 0 1 -911 -393 )">
    <path d="M 117.28035099334178 27.52870514735956  L 113.00778216381019 34.90382721002657  C 103.21500409712127 18.396445185696333  85.20381022150993 7.529411764705886  64.21875 7.529411764705886  C 32.48713235294115 7.529411764705886  7.555147058823479 32.37647058823527  7.555147058823479 64  C 7.555147058823479 95.62352941176474  32.48713235294115 120.47058823529417  64.21875 120.47058823529417  C 85.41910851054041 120.47058823529417  103.58426629946301 109.3794281612301  113.30659117597293 92.58631998454872  L 119.87142801261434 96.3636196099817  C 108.8576654060439 115.41495438314068  88.26021600886222 128  64.21875 128  C 28.256249999999987 128  0 99.84000000000002  0 64  C 0 28.159999999999986  28.256249999999987 0  64.21875 0  C 86.4869212147213 0  105.80039885430097 10.79697272681109  117.28035099334178 27.52870514735956  Z " fill-rule="nonzero" fill="url(#LinearGradient1003)" stroke="none" transform="matrix(1 0 0 1 911 393 )" />
  </g>
</svg>