<?xml version="1.0" encoding="utf-8"?>
<svg version="1.1" xmlns:xlink="http://www.w3.org/1999/xlink" width="370px" height="488px" xmlns="http://www.w3.org/2000/svg">
  <g transform="matrix(1 0 0 1 -10 -215 )">
    <path d="M 11 225  A 9 9 0 0 1 20 216 L 370 216  A 9 9 0 0 1 379 225 L 379 693  A 9 9 0 0 1 370 702 L 20 702  A 9 9 0 0 1 11 693 L 11 225  Z " fill-rule="nonzero" fill="#ffffff" stroke="none" />
    <path d="M 10.5 225  A 9.5 9.5 0 0 1 20 215.5 L 370 215.5  A 9.5 9.5 0 0 1 379.5 225 L 379.5 693  A 9.5 9.5 0 0 1 370 702.5 L 20 702.5  A 9.5 9.5 0 0 1 10.5 693 L 10.5 225  Z " stroke-width="1" stroke="#2c7939" fill="none" stroke-opacity="0.5450980392156862" />
  </g>
</svg>