<?xml version="1.0" encoding="utf-8"?>
<svg version="1.1" xmlns:xlink="http://www.w3.org/1999/xlink" width="350px" height="31px" xmlns="http://www.w3.org/2000/svg">
  <g transform="matrix(1 0 0 1 -20 -420 )">
    <path d="M 21 426  A 5 5 0 0 1 26 421 L 364 421  A 5 5 0 0 1 369 426 L 369 445  A 5 5 0 0 1 364 450 L 26 450  A 5 5 0 0 1 21 445 L 21 426  Z " fill-rule="nonzero" fill="#ffffff" stroke="none" />
    <path d="M 20.5 426  A 5.5 5.5 0 0 1 26 420.5 L 364 420.5  A 5.5 5.5 0 0 1 369.5 426 L 369.5 445  A 5.5 5.5 0 0 1 364 450.5 L 26 450.5  A 5.5 5.5 0 0 1 20.5 445 L 20.5 426  Z " stroke-width="1" stroke="#2c7939" fill="none" stroke-opacity="0.5450980392156862" />
  </g>
</svg>