<?xml version="1.0" encoding="utf-8"?>
<svg version="1.1" xmlns:xlink="http://www.w3.org/1999/xlink" width="37px" height="37px" xmlns="http://www.w3.org/2000/svg">
  <g transform="matrix(1 0 0 1 -61 -480 )">
    <path d="M 79.5 480  C 89.86 480  98 488.14  98 498.5  C 98 508.86  89.86 517  79.5 517  C 69.14 517  61 508.86  61 498.5  C 61 488.14  69.14 480  79.5 480  Z " fill-rule="nonzero" fill="#ffffff" stroke="none" />
    <path d="M 79.5 480.5  C 89.58 480.5  97.5 488.42  97.5 498.5  C 97.5 508.58  89.58 516.5  79.5 516.5  C 69.42 516.5  61.5 508.58  61.5 498.5  C 61.5 488.42  69.42 480.5  79.5 480.5  Z " stroke-width="1" stroke="#02a7f0" fill="none" />
  </g>
</svg>